<svg xmlns="http://www.w3.org/2000/svg" viewBox="0 0 1600 912" role="img" aria-labelledby="title desc">
  <title id="title">Banking application dashboard</title>
  <desc id="desc">Light banking dashboard with account balances, transactions, transfer form, and debit card.</desc>
  <rect width="1600" height="912" fill="#f8faff"/>
  <rect width="247" height="912" fill="#031a45"/>
  <rect x="15" y="26" width="222" height="51" rx="9" fill="#0758bd"/><text x="73" y="58" fill="#fff" font-family="Arial,sans-serif" font-size="16">Dashboard</text>
  <g fill="#e5ecf8" font-family="Arial,sans-serif" font-size="16"><text x="73" y="128">Accounts</text><text x="73" y="184">Transfers</text><text x="73" y="240">Payments</text><text x="73" y="296">Cards</text><text x="73" y="352">Loans</text><text x="73" y="408">Investments</text><text x="73" y="464">Statements</text><text x="73" y="520">Alerts</text><text x="73" y="576">Settings</text><text x="73" y="632">Support</text></g>
  <rect x="20" y="646" width="207" height="154" rx="10" fill="none" stroke="#29436e"/><text x="36" y="680" fill="#e5ecf8" font-family="Arial,sans-serif" font-size="15">Quick View</text><text x="36" y="708" fill="#98aaca" font-family="Arial,sans-serif" font-size="14">•••• 4532</text><path d="M36 730h174" stroke="#29436e"/><text x="36" y="765" fill="#98aaca" font-family="Arial,sans-serif" font-size="12">Last login</text><text x="36" y="786" fill="#e5ecf8" font-family="Arial,sans-serif" font-size="13">May 21, 2025 9:41 AM</text>
  <text x="280" y="51" fill="#0c1730" font-family="Arial,sans-serif" font-size="28" font-weight="bold">Good morning, Alex</text><text x="280" y="78" fill="#77839a" font-family="Arial,sans-serif" font-size="14">Wednesday, May 21, 2025</text>
  <rect x="278" y="105" width="680" height="380" rx="12" fill="#fff" stroke="#e1e6ef" stroke-width="2"/><text x="296" y="139" fill="#15213a" font-family="Arial,sans-serif" font-size="16" font-weight="bold">Accounts Overview</text><text x="296" y="177" fill="#77839a" font-family="Arial,sans-serif" font-size="14">Total Balance</text><text x="296" y="218" fill="#101d38" font-family="Arial,sans-serif" font-size="37" font-weight="bold">$24,760.50</text><text x="296" y="252" fill="#169653" font-family="Arial,sans-serif" font-size="14">+$1,250.75 (5.32%) this month</text>
  <path d="M320 424L360 394 393 402 427 376 462 386 496 355 529 367 564 344 600 351 636 328 670 351 704 318 738 338 773 307 806 280 840 298 873 278 910 290" fill="none" stroke="#1771ee" stroke-width="3"/><path d="M320 424L360 394 393 402 427 376 462 386 496 355 529 367 564 344 600 351 636 328 670 351 704 318 738 338 773 307 806 280 840 298 873 278 910 290V440H320Z" fill="#e7f0ff" opacity=".8"/><path d="M320 440h590" stroke="#d9e0ec"/><text x="338" y="463" fill="#77839a" font-family="Arial,sans-serif" font-size="12">Apr 21</text><text x="470" y="463" fill="#77839a" font-family="Arial,sans-serif" font-size="12">Apr 28</text><text x="610" y="463" fill="#77839a" font-family="Arial,sans-serif" font-size="12">May 5</text><text x="750" y="463" fill="#77839a" font-family="Arial,sans-serif" font-size="12">May 12</text><text x="867" y="463" fill="#77839a" font-family="Arial,sans-serif" font-size="12">May 19</text>
  <g font-family="Arial,sans-serif"><rect x="982" y="105" width="282" height="121" rx="12" fill="#fff" stroke="#e1e6ef"/><rect x="1280" y="105" width="282" height="121" rx="12" fill="#fff" stroke="#e1e6ef"/><rect x="982" y="245" width="282" height="121" rx="12" fill="#fff" stroke="#e1e6ef"/><rect x="1280" y="245" width="282" height="121" rx="12" fill="#fff" stroke="#e1e6ef"/><text x="1003" y="139" fill="#15213a" font-size="15" font-weight="bold">Checking Account</text><text x="1003" y="164" fill="#77839a" font-size="13">•••• 4532</text><text x="1003" y="202" fill="#15213a" font-size="18">$8,560.40</text><text x="1301" y="139" fill="#15213a" font-size="15" font-weight="bold">Savings Account</text><text x="1301" y="164" fill="#77839a" font-size="13">•••• 8127</text><text x="1301" y="202" fill="#15213a" font-size="18">$12,340.10</text><text x="1003" y="279" fill="#15213a" font-size="15" font-weight="bold">Money Market</text><text x="1003" y="304" fill="#77839a" font-size="13">•••• 3001</text><text x="1003" y="342" fill="#15213a" font-size="18">$3,860.00</text><text x="1301" y="279" fill="#15213a" font-size="15" font-weight="bold">Credit Card</text><text x="1301" y="304" fill="#77839a" font-size="13">•••• 7381</text><text x="1301" y="342" fill="#15213a" font-size="18">-$1,999.80</text></g>
  <rect x="278" y="503" width="680" height="320" rx="12" fill="#fff" stroke="#e1e6ef"/><text x="296" y="537" fill="#15213a" font-family="Arial,sans-serif" font-size="16" font-weight="bold">Recent Transactions</text><text x="296" y="580" fill="#77839a" font-family="Arial,sans-serif" font-size="12">Date</text><text x="430" y="580" fill="#77839a" font-family="Arial,sans-serif" font-size="12">Description</text><text x="600" y="580" fill="#77839a" font-family="Arial,sans-serif" font-size="12">Category</text><text x="770" y="580" fill="#77839a" font-family="Arial,sans-serif" font-size="12">Amount</text><path d="M296 595h642M296 645h642M296 695h642M296 745h642" stroke="#edf0f5"/><g fill="#34415a" font-family="Arial,sans-serif" font-size="13"><text x="296" y="625">May 21, 2025</text><text x="430" y="625">Starbucks</text><text x="600" y="625">Food &amp; Dining</text><text x="850" y="625">-$5.75</text><text x="296" y="675">May 20, 2025</text><text x="430" y="675">Amazon.com</text><text x="600" y="675">Shopping</text><text x="850" y="675">-$89.99</text><text x="296" y="725">May 19, 2025</text><text x="430" y="725">Salary Deposit</text><text x="600" y="725">Income</text><text x="850" y="725" fill="#169653">+$2,500.00</text><text x="296" y="775">May 18, 2025</text><text x="430" y="775">Shell Gas Station</text><text x="600" y="775">Transportation</text><text x="850" y="775">-$45.20</text></g>
  <rect x="982" y="385" width="282" height="438" rx="12" fill="#fff" stroke="#e1e6ef"/><text x="1003" y="420" fill="#15213a" font-family="Arial,sans-serif" font-size="16" font-weight="bold">Transfer Money</text><text x="1003" y="462" fill="#34415a" font-family="Arial,sans-serif" font-size="13">From</text><rect x="1003" y="474" width="240" height="42" rx="7" fill="#fff" stroke="#d4dbe6"/><text x="1016" y="500" fill="#34415a" font-family="Arial,sans-serif" font-size="12">Checking Account (•••• 4532)</text><text x="1003" y="550" fill="#34415a" font-family="Arial,sans-serif" font-size="13">To</text><rect x="1003" y="562" width="240" height="42" rx="7" fill="#fff" stroke="#d4dbe6"/><text x="1016" y="588" fill="#34415a" font-family="Arial,sans-serif" font-size="12">Savings Account (•••• 8127)</text><text x="1003" y="638" fill="#34415a" font-family="Arial,sans-serif" font-size="13">Amount</text><rect x="1003" y="650" width="240" height="42" rx="7" fill="#fff" stroke="#d4dbe6"/><text x="1016" y="676" fill="#34415a" font-family="Arial,sans-serif" font-size="14">$ 500.00</text><rect x="1003" y="718" width="240" height="45" rx="7" fill="#1269ed"/><text x="1077" y="746" fill="#fff" font-family="Arial,sans-serif" font-size="13">Review Transfer</text>
  <rect x="1280" y="385" width="282" height="182" rx="12" fill="#062d68"/><text x="1301" y="418" fill="#fff" font-family="Arial,sans-serif" font-size="14">Debit Card</text><text x="1301" y="474" fill="#fff" font-family="monospace" font-size="18">4551 2600 7381 1234</text><text x="1301" y="518" fill="#fff" font-family="Arial,sans-serif" font-size="14">VALID THRU   08/28</text><text x="1301" y="548" fill="#fff" font-family="Arial,sans-serif" font-size="14">ALEX JOHNSON</text><rect x="1280" y="587" width="282" height="236" rx="12" fill="#fff" stroke="#e1e6ef"/><text x="1301" y="622" fill="#15213a" font-family="Arial,sans-serif" font-size="16" font-weight="bold">Card Actions</text><text x="1301" y="670" fill="#34415a" font-family="Arial,sans-serif" font-size="14">Lock Card</text><text x="1301" y="720" fill="#34415a" font-family="Arial,sans-serif" font-size="14">View PIN</text><text x="1301" y="770" fill="#34415a" font-family="Arial,sans-serif" font-size="14">Card Settings</text>
</svg>